<svg width="154" height="26" viewBox="0 0 154 26" fill="none" xmlns="http://www.w3.org/2000/svg">
<path d="M12.7465 5.17955C15.3707 5.17955 17.6883 6.33814 18.3358 8.99607H24.1297C23.5503 3.54391 18.9152 0 12.8828 0C5.07814 0 0 5.48624 0 13.0852C0 20.8204 4.94182 26 11.9967 26C14.9959 26 17.7224 24.9436 19.0856 23.3421L19.3924 25.6252H24.1297V11.1429H12.2693V15.9817H18.9493C18.7107 18.6055 16.8703 20.8545 12.7124 20.8545C8.69078 20.8545 5.82793 18.3329 5.82793 13.2556C5.82793 8.3827 8.17956 5.17955 12.7465 5.17955Z" fill="white"/>
<path d="M32.1314 25.6252L33.9377 20.3093H42.0832L43.8554 25.6252H49.7174L40.754 0.408913H35.3691L26.3716 25.6252H32.1314ZM37.3459 10.291C37.6526 9.3709 37.9252 8.41678 38.0275 7.83749C38.1297 8.45085 38.4365 9.43906 38.7091 10.291L40.5154 15.675H35.5395L37.3459 10.291Z" fill="white"/>
<path d="M58.1739 0.408913H52.6527V25.6252H84.665V20.5138H58.1739V0.408913Z" fill="white"/>
<path d="M90.2429 25.6252L92.9012 20.2412H100.944L101.831 25.6252H107.284L102.478 0.408913H97.2636L84.449 25.6252H90.2429ZM97.9112 9.98427C98.3202 9.16645 98.7292 8.17824 98.9336 7.59895C98.9336 8.17824 99.1041 9.3709 99.2063 9.98427L100.161 15.7431H95.1506L97.9112 9.98427Z" fill="white"/>
<path d="M115.582 25.6252L116.979 16.7313H121.239L123.932 25.6252H129.419L126.317 15.5727C129.862 13.8689 131.804 11.0406 131.804 7.70118C131.804 3.23722 128.635 0.408913 123.625 0.408913H114.252L110.265 25.6252H115.582ZM118.819 5.17955H122.773C124.954 5.17955 126.249 6.26999 126.249 8.14417C126.249 10.5636 124.579 12.0288 121.853 12.0288H117.729L118.819 5.17955Z" fill="white"/>
<path d="M133.892 5.38401H140.913L137.709 25.6252H143.026L146.229 5.38401H153.216L154 0.408913H134.676L133.892 5.38401Z" fill="white"/>
</svg>
